<?xml version="1.0" encoding="UTF-8" standalone="no"?>
<!DOCTYPE svg PUBLIC "-//W3C//DTD SVG 1.1//EN" "http://www.w3.org/Graphics/SVG/1.1/DTD/svg11.dtd">
<svg xmlns="http://www.w3.org/2000/svg" version="1.1" viewBox="0 0 236 239" width="236.0pt" height="239.0pt">
<path d="M 0.00 0.00 L 1.34 0.00 C 4.52 0.79 7.68 1.48 10.98 1.45 C 43.98 1.72 77.00 1.82 110.00 1.60 C 114.27 1.57 118.48 1.76 122.73 2.16 C 131.45 3.10 140.24 2.64 149.00 3.13 C 169.67 3.12 190.33 3.43 211.00 3.22 C 219.21 3.30 227.93 2.66 236.00 3.90 L 236.00 5.47 C 228.26 3.26 220.90 4.22 213.00 4.08 C 204.21 3.95 195.77 5.62 186.97 4.92 C 171.75 3.44 156.35 4.34 141.00 4.10 C 134.44 4.28 128.69 3.01 122.54 5.50 C 127.05 6.15 131.53 5.85 136.06 6.02 C 139.79 6.21 143.11 7.74 146.77 7.73 C 156.51 7.53 166.24 7.34 175.96 6.65 C 177.84 6.63 180.30 6.22 181.93 7.33 C 181.97 8.98 182.31 9.79 180.65 10.70 C 175.50 11.23 170.21 9.86 165.01 9.97 C 157.54 10.09 149.76 9.44 142.44 10.68 C 137.59 11.51 132.67 11.49 127.83 12.41 C 129.74 13.77 131.61 15.17 133.54 16.50 C 136.10 16.91 138.68 17.21 141.25 17.61 C 137.20 17.94 133.12 17.83 129.09 18.24 C 126.57 18.43 124.61 20.27 123.21 22.22 C 121.34 24.60 122.22 28.07 123.52 30.49 C 126.86 32.56 133.03 30.58 136.19 33.46 C 138.03 34.72 137.52 37.86 137.76 39.81 C 140.30 39.18 142.84 38.58 145.39 37.98 C 145.36 36.82 145.33 35.66 145.30 34.50 C 148.01 34.71 150.75 34.75 153.45 35.08 C 156.05 35.31 158.25 37.22 160.21 38.81 C 162.99 41.09 165.15 43.88 167.20 46.81 C 166.13 46.33 165.03 45.90 163.92 45.50 L 163.74 47.07 C 161.50 43.64 158.99 39.97 155.00 38.46 C 152.60 39.26 150.43 41.16 148.48 42.77 C 146.43 43.71 144.32 44.52 142.21 45.32 C 141.69 46.52 141.18 47.73 140.66 48.93 C 139.72 48.02 138.79 47.11 137.86 46.19 C 136.73 47.47 135.59 48.74 134.46 50.02 C 133.35 48.53 132.25 47.03 131.15 45.53 C 132.74 44.02 134.56 42.52 135.81 40.70 C 136.55 39.29 134.43 37.75 133.62 36.79 C 127.95 35.87 123.18 38.47 119.03 42.02 C 116.41 44.40 113.82 46.80 111.10 49.07 C 107.93 51.30 106.71 54.44 105.43 57.94 C 103.15 55.72 101.43 53.51 98.04 53.22 C 93.67 53.24 89.52 53.22 85.26 54.35 C 78.65 55.98 72.74 59.82 66.99 63.35 C 69.80 67.09 72.90 70.65 75.53 74.51 C 76.90 77.51 78.09 80.64 79.21 83.74 C 77.46 83.85 75.70 83.98 73.95 84.04 C 68.97 82.60 64.63 80.12 59.94 78.03 C 60.33 80.52 60.48 83.09 61.63 85.37 C 62.99 88.08 65.27 90.52 67.29 92.76 C 68.37 94.95 69.23 97.22 70.01 99.52 C 70.50 103.98 73.04 107.12 75.33 110.80 C 73.57 109.63 71.71 108.07 69.65 107.50 C 67.48 107.06 65.16 107.11 62.95 107.06 C 61.86 105.73 60.76 104.39 59.67 103.05 C 57.77 103.04 55.86 103.02 53.96 103.02 C 54.06 105.84 53.49 109.58 54.88 112.12 C 56.12 113.74 59.53 112.91 61.28 112.87 C 61.41 114.13 61.53 115.38 61.66 116.64 C 55.09 117.04 48.99 119.23 42.36 119.07 C 42.13 117.10 41.88 115.13 41.64 113.16 C 30.74 112.05 19.18 114.80 8.63 112.31 C 7.24 107.51 8.54 102.03 7.75 97.03 C 7.00 92.38 5.94 87.82 5.58 83.11 C 4.82 83.11 4.06 83.11 3.30 83.11 C 1.56 98.41 2.30 113.65 2.15 129.00 C 2.10 137.46 2.55 145.83 1.50 154.26 C 1.16 145.50 1.21 136.76 1.23 128.00 C 1.05 99.33 1.23 70.67 1.06 42.00 C 1.01 35.48 1.74 29.53 0.47 23.18 C 0.98 15.50 1.74 8.26 0.00 0.65 L 0.00 0.00 Z" fill="#0ab0cc" />
<path d="M 1.34 0.00 L 97.50 0.00 C 100.65 0.40 103.79 0.84 106.98 0.88 C 118.39 1.00 129.81 0.95 141.21 1.33 C 135.05 1.53 128.90 1.98 122.73 2.16 C 118.48 1.76 114.27 1.57 110.00 1.60 C 77.00 1.82 43.98 1.72 10.98 1.45 C 7.68 1.48 4.52 0.79 1.34 0.00 Z" fill="#8c6f76" />
<path d="M 97.50 0.00 L 236.00 0.00 L 236.00 1.24 C 204.42 1.75 172.79 1.20 141.21 1.33 C 129.81 0.95 118.39 1.00 106.98 0.88 C 103.79 0.84 100.65 0.40 97.50 0.00 Z" fill="#864c4c" />
<path d="M 0.00 0.65 C 1.74 8.26 0.98 15.50 0.47 23.18 L 0.00 22.09 L 0.00 0.65 Z" fill="#0c6eae" />
<path d="M 141.21 1.33 C 172.79 1.20 204.42 1.75 236.00 1.24 L 236.00 3.90 C 227.93 2.66 219.21 3.30 211.00 3.22 C 190.33 3.43 169.67 3.12 149.00 3.13 C 140.24 2.64 131.45 3.10 122.73 2.16 C 128.90 1.98 135.05 1.53 141.21 1.33 Z" fill="#638495" />
<path d="M 141.00 4.10 C 156.35 4.34 171.75 3.44 186.97 4.92 C 195.77 5.62 204.21 3.95 213.00 4.08 C 220.90 4.22 228.26 3.26 236.00 5.47 L 236.00 13.34 C 233.60 24.56 235.49 36.56 234.69 48.03 C 234.02 56.11 234.08 64.22 233.42 72.29 C 231.45 65.86 232.10 59.75 231.95 53.14 L 230.09 53.15 C 230.01 61.17 229.69 69.16 228.67 77.12 C 227.53 75.68 226.40 74.24 225.27 72.80 C 225.04 77.36 224.51 81.90 224.26 86.46 C 224.06 89.71 225.02 92.56 225.63 95.68 C 226.10 97.84 225.19 100.25 224.70 102.35 C 216.63 94.03 207.68 86.71 199.48 78.53 C 193.53 72.80 187.60 67.08 182.04 60.98 C 177.35 55.67 171.16 52.83 167.20 46.81 C 165.15 43.88 162.99 41.09 160.21 38.81 C 158.25 37.22 156.05 35.31 153.45 35.08 C 150.75 34.75 148.01 34.71 145.30 34.50 C 145.33 35.66 145.36 36.82 145.39 37.98 C 142.84 38.58 140.30 39.18 137.76 39.81 C 137.52 37.86 138.03 34.72 136.19 33.46 C 133.03 30.58 126.86 32.56 123.52 30.49 C 122.22 28.07 121.34 24.60 123.21 22.22 C 124.61 20.27 126.57 18.43 129.09 18.24 C 133.12 17.83 137.20 17.94 141.25 17.61 C 138.68 17.21 136.10 16.91 133.54 16.50 C 131.61 15.17 129.74 13.77 127.83 12.41 C 132.67 11.49 137.59 11.51 142.44 10.68 C 149.76 9.44 157.54 10.09 165.01 9.97 C 170.21 9.86 175.50 11.23 180.65 10.70 C 182.31 9.79 181.97 8.98 181.93 7.33 C 180.30 6.22 177.84 6.63 175.96 6.65 C 166.24 7.34 156.51 7.53 146.77 7.73 C 143.11 7.74 139.79 6.21 136.06 6.02 C 131.53 5.85 127.05 6.15 122.54 5.50 C 128.69 3.01 134.44 4.28 141.00 4.10 Z" fill="#0bb7cd" />
<path d="M 236.00 13.34 L 236.00 71.46 C 235.52 74.97 235.02 78.45 234.96 81.99 C 234.75 91.53 234.38 101.07 233.94 110.61 C 229.55 109.07 227.44 105.79 224.70 102.35 C 225.19 100.25 226.10 97.84 225.63 95.68 C 225.02 92.56 224.06 89.71 224.26 86.46 C 224.51 81.90 225.04 77.36 225.27 72.80 C 226.40 74.24 227.53 75.68 228.67 77.12 C 229.69 69.16 230.01 61.17 230.09 53.15 L 231.95 53.14 C 232.10 59.75 231.45 65.86 233.42 72.29 C 234.08 64.22 234.02 56.11 234.69 48.03 C 235.49 36.56 233.60 24.56 236.00 13.34 Z" fill="#19b8c5" />
<path d="M 0.00 22.09 L 0.47 23.18 C 1.74 29.53 1.01 35.48 1.06 42.00 C 1.23 70.67 1.05 99.33 1.23 128.00 C 1.21 136.76 1.16 145.50 1.50 154.26 C 0.91 172.82 1.39 191.43 1.29 210.00 C 1.59 218.95 0.44 227.01 2.75 235.24 C 2.40 236.50 2.05 237.75 1.66 239.00 L 0.00 239.00 L 0.00 22.09 Z" fill="#188ccc" />
<path d="M 133.62 36.79 C 132.19 43.37 127.55 46.64 124.24 52.18 C 122.73 54.64 120.99 57.87 122.02 60.81 C 123.21 64.40 126.20 67.62 128.56 70.52 C 132.81 75.45 136.76 80.51 140.53 85.82 C 147.99 85.47 152.55 78.84 155.83 72.92 C 159.06 65.72 160.58 56.80 158.21 49.14 C 154.62 53.45 151.34 59.59 146.47 62.49 C 141.99 64.67 135.54 63.12 130.93 61.88 C 137.34 55.94 143.54 50.04 148.48 42.77 C 150.43 41.16 152.60 39.26 155.00 38.46 C 158.99 39.97 161.50 43.64 163.74 47.07 C 167.29 53.59 169.68 60.49 169.60 67.99 C 169.99 77.55 164.61 87.79 155.74 91.89 C 150.58 94.54 145.63 93.60 140.10 93.66 C 137.57 93.32 135.45 96.31 134.08 98.08 C 132.55 100.11 133.45 102.47 134.59 104.44 C 139.50 112.89 146.52 119.60 151.00 128.36 C 148.66 130.33 146.16 132.05 143.58 133.67 C 138.41 136.89 134.20 141.58 130.44 146.32 C 126.67 139.96 122.53 133.97 116.93 129.07 C 109.05 122.19 101.26 115.23 93.44 108.29 C 92.69 107.58 91.95 106.87 91.21 106.15 C 92.27 105.50 93.32 104.86 94.37 104.20 C 101.89 99.69 107.19 92.88 108.38 84.03 C 109.05 75.71 108.61 67.24 107.85 58.94 C 107.50 55.17 109.25 52.17 111.10 49.07 C 113.82 46.80 116.41 44.40 119.03 42.02 C 123.18 38.47 127.95 35.87 133.62 36.79 Z" fill="#f9fdfb" />
<path d="M 133.62 36.79 C 134.43 37.75 136.55 39.29 135.81 40.70 C 134.56 42.52 132.74 44.02 131.15 45.53 C 132.25 47.03 133.35 48.53 134.46 50.02 C 135.59 48.74 136.73 47.47 137.86 46.19 C 138.79 47.11 139.72 48.02 140.66 48.93 C 141.18 47.73 141.69 46.52 142.21 45.32 C 144.32 44.52 146.43 43.71 148.48 42.77 C 143.54 50.04 137.34 55.94 130.93 61.88 C 135.54 63.12 141.99 64.67 146.47 62.49 C 151.34 59.59 154.62 53.45 158.21 49.14 C 160.58 56.80 159.06 65.72 155.83 72.92 C 152.55 78.84 147.99 85.47 140.53 85.82 C 136.76 80.51 132.81 75.45 128.56 70.52 C 126.20 67.62 123.21 64.40 122.02 60.81 C 120.99 57.87 122.73 54.64 124.24 52.18 C 127.55 46.64 132.19 43.37 133.62 36.79 Z" fill="#098cc5" />
<path d="M 163.92 45.50 C 165.03 45.90 166.13 46.33 167.20 46.81 C 171.16 52.83 177.35 55.67 182.04 60.98 C 187.60 67.08 193.53 72.80 199.48 78.53 C 207.68 86.71 216.63 94.03 224.70 102.35 C 227.44 105.79 229.55 109.07 233.94 110.61 C 233.97 111.95 234.05 113.29 234.15 114.63 C 234.40 126.78 234.62 139.05 233.53 151.17 C 233.03 147.43 232.43 143.71 231.69 140.01 C 230.98 141.15 230.27 142.30 229.56 143.46 C 226.49 142.28 223.71 141.03 221.56 138.43 C 218.10 134.34 213.30 132.18 209.58 128.40 C 206.54 125.45 203.89 122.08 200.79 119.19 C 197.56 116.19 193.85 114.45 190.87 111.14 C 188.82 108.97 186.99 106.18 184.54 104.48 C 182.41 103.22 179.43 103.19 177.03 102.95 C 172.87 102.75 168.67 102.20 164.51 102.31 C 162.23 102.34 160.84 103.74 159.22 105.15 C 155.06 109.05 151.09 113.13 147.67 117.72 C 149.80 120.38 153.00 123.35 152.96 127.01 C 153.17 129.93 151.02 132.00 149.44 134.20 C 149.99 134.68 150.54 135.15 151.09 135.63 C 145.20 138.74 140.23 143.37 137.60 149.58 C 134.51 156.79 133.22 165.58 135.94 173.08 C 137.80 178.60 141.95 183.04 146.45 186.58 C 150.65 189.86 155.62 191.98 161.04 191.73 C 165.18 191.79 168.61 189.95 172.17 188.09 C 170.57 190.35 169.15 192.44 166.32 193.20 C 162.29 194.22 157.81 193.86 153.73 193.35 C 144.08 190.66 135.79 182.59 133.09 172.91 C 131.90 167.09 131.84 160.93 133.21 155.14 C 134.39 149.78 138.36 146.07 139.02 140.49 C 134.48 144.09 130.89 147.93 127.69 152.76 C 126.85 149.44 126.57 145.78 125.22 142.63 C 123.46 140.21 120.85 138.38 118.80 136.20 C 114.48 131.95 112.48 127.03 106.46 124.75 C 107.26 128.01 108.74 131.38 108.88 134.73 C 108.07 136.64 105.85 138.01 104.36 139.40 C 100.76 142.27 98.47 145.86 95.43 149.25 L 95.05 147.19 C 98.38 141.90 103.13 136.82 105.29 130.95 C 105.65 128.82 102.86 126.07 101.52 124.49 C 98.08 121.20 94.09 116.34 89.23 115.47 C 90.53 113.01 91.95 110.63 93.44 108.29 C 101.26 115.23 109.05 122.19 116.93 129.07 C 122.53 133.97 126.67 139.96 130.44 146.32 C 134.20 141.58 138.41 136.89 143.58 133.67 C 146.16 132.05 148.66 130.33 151.00 128.36 C 146.52 119.60 139.50 112.89 134.59 104.44 C 133.45 102.47 132.55 100.11 134.08 98.08 C 135.45 96.31 137.57 93.32 140.10 93.66 C 145.63 93.60 150.58 94.54 155.74 91.89 C 164.61 87.79 169.99 77.55 169.60 67.99 C 169.68 60.49 167.29 53.59 163.74 47.07 L 163.92 45.50 Z" fill="#0383b0" />
<path d="M 111.10 49.07 C 109.25 52.17 107.50 55.17 107.85 58.94 C 108.61 67.24 109.05 75.71 108.38 84.03 C 107.19 92.88 101.89 99.69 94.37 104.20 C 93.59 102.84 92.82 101.47 92.04 100.11 C 87.84 100.72 84.02 100.81 80.08 99.02 C 84.77 99.62 90.29 100.08 94.49 97.48 C 99.00 94.77 102.79 90.05 104.23 84.97 C 104.96 81.03 104.47 76.74 104.14 72.77 C 103.11 73.99 102.10 75.22 101.10 76.46 C 100.27 75.99 99.44 75.52 98.61 75.05 C 101.57 70.25 103.48 65.15 102.42 59.42 C 102.09 56.65 99.84 55.11 98.04 53.22 C 101.43 53.51 103.15 55.72 105.43 57.94 C 106.71 54.44 107.93 51.30 111.10 49.07 Z" fill="#1b8bab" />
<path d="M 85.26 54.35 C 89.52 53.22 93.67 53.24 98.04 53.22 C 99.84 55.11 102.09 56.65 102.42 59.42 C 103.48 65.15 101.57 70.25 98.61 75.05 C 95.69 78.89 91.41 82.51 86.65 83.66 C 84.66 83.93 81.94 84.30 80.80 82.20 C 78.96 79.70 77.38 77.01 75.53 74.51 C 72.90 70.65 69.80 67.09 66.99 63.35 C 72.74 59.82 78.65 55.98 85.26 54.35 Z" fill="#f6fcf9" />
<path d="M 236.00 71.46 L 236.00 117.21 C 235.38 116.35 234.77 115.49 234.15 114.63 C 234.05 113.29 233.97 111.95 233.94 110.61 C 234.38 101.07 234.75 91.53 234.96 81.99 C 235.02 78.45 235.52 74.97 236.00 71.46 Z" fill="#379dc1" />
<path d="M 104.14 72.77 C 104.47 76.74 104.96 81.03 104.23 84.97 C 102.79 90.05 99.00 94.77 94.49 97.48 C 90.29 100.08 84.77 99.62 80.08 99.02 C 75.66 97.34 71.33 95.23 67.29 92.76 C 65.27 90.52 62.99 88.08 61.63 85.37 C 60.48 83.09 60.33 80.52 59.94 78.03 C 64.63 80.12 68.97 82.60 73.95 84.04 C 79.37 85.67 84.04 87.67 89.76 85.76 C 94.98 84.26 97.82 80.45 101.10 76.46 C 102.10 75.22 103.11 73.99 104.14 72.77 Z" fill="#f5fbf7" />
<path d="M 75.53 74.51 C 77.38 77.01 78.96 79.70 80.80 82.20 C 81.94 84.30 84.66 83.93 86.65 83.66 C 91.41 82.51 95.69 78.89 98.61 75.05 C 99.44 75.52 100.27 75.99 101.10 76.46 C 97.82 80.45 94.98 84.26 89.76 85.76 C 84.04 87.67 79.37 85.67 73.95 84.04 C 75.70 83.98 77.46 83.85 79.21 83.74 C 78.09 80.64 76.90 77.51 75.53 74.51 Z" fill="#216da1" />
<path d="M 3.30 83.11 C 4.06 83.11 4.82 83.11 5.58 83.11 C 5.94 87.82 7.00 92.38 7.75 97.03 C 8.54 102.03 7.24 107.51 8.63 112.31 C 19.18 114.80 30.74 112.05 41.64 113.16 C 41.88 115.13 42.13 117.10 42.36 119.07 C 48.99 119.23 55.09 117.04 61.66 116.64 C 61.53 115.38 61.41 114.13 61.28 112.87 C 59.53 112.91 56.12 113.74 54.88 112.12 C 53.49 109.58 54.06 105.84 53.96 103.02 C 55.86 103.02 57.77 103.04 59.67 103.05 C 60.76 104.39 61.86 105.73 62.95 107.06 C 65.16 107.11 67.48 107.06 69.65 107.50 C 71.71 108.07 73.57 109.63 75.33 110.80 C 73.04 107.12 70.50 103.98 70.01 99.52 C 72.33 102.48 74.37 105.47 76.29 108.71 C 79.01 113.31 82.72 116.66 86.27 120.56 C 79.51 129.35 72.83 138.26 65.79 146.84 C 59.88 153.23 54.77 159.77 52.19 168.24 C 50.68 173.10 51.20 178.18 53.05 182.87 C 53.89 185.13 54.82 187.34 56.06 189.42 C 59.59 194.95 63.87 199.87 68.58 204.42 C 73.15 209.19 77.83 213.85 82.43 218.59 C 86.64 223.38 90.96 228.06 95.20 232.83 C 92.44 233.49 89.85 234.26 86.99 234.39 C 58.91 235.65 30.89 234.78 2.75 235.24 C 0.44 227.01 1.59 218.95 1.29 210.00 C 1.39 191.43 0.91 172.82 1.50 154.26 C 2.55 145.83 2.10 137.46 2.15 129.00 C 2.30 113.65 1.56 98.41 3.30 83.11 Z" fill="#03aace" />
<path d="M 67.29 92.76 C 71.33 95.23 75.66 97.34 80.08 99.02 C 84.02 100.81 87.84 100.72 92.04 100.11 C 92.82 101.47 93.59 102.84 94.37 104.20 C 93.32 104.86 92.27 105.50 91.21 106.15 C 91.95 106.87 92.69 107.58 93.44 108.29 C 91.95 110.63 90.53 113.01 89.23 115.47 C 88.27 117.19 87.33 118.90 86.27 120.56 C 82.72 116.66 79.01 113.31 76.29 108.71 C 74.37 105.47 72.33 102.48 70.01 99.52 C 69.23 97.22 68.37 94.95 67.29 92.76 Z" fill="#0673a8" />
<path d="M 164.51 102.31 C 168.67 102.20 172.87 102.75 177.03 102.95 C 179.43 103.19 182.41 103.22 184.54 104.48 C 186.99 106.18 188.82 108.97 190.87 111.14 C 193.85 114.45 197.56 116.19 200.79 119.19 C 203.89 122.08 206.54 125.45 209.58 128.40 C 213.30 132.18 218.10 134.34 221.56 138.43 C 223.71 141.03 226.49 142.28 229.56 143.46 C 230.27 142.30 230.98 141.15 231.69 140.01 C 232.43 143.71 233.03 147.43 233.53 151.17 C 234.62 139.05 234.40 126.78 234.15 114.63 C 234.77 115.49 235.38 116.35 236.00 117.21 L 236.00 233.77 C 228.43 236.49 221.96 234.26 214.28 233.75 C 210.40 233.26 206.52 232.80 202.62 232.50 C 202.21 231.52 201.79 230.53 201.39 229.55 C 195.30 228.67 189.29 227.39 183.19 226.62 L 183.20 226.39 C 186.27 226.04 189.33 225.53 192.35 224.88 C 191.17 223.97 189.90 223.08 188.84 222.03 C 187.78 219.54 187.87 216.46 187.53 213.78 C 185.79 213.11 183.96 212.48 182.34 211.56 C 181.68 207.48 181.96 203.22 181.88 199.10 C 176.28 198.84 170.65 199.32 165.07 198.90 C 163.22 198.86 162.18 197.15 160.91 196.02 C 158.55 195.04 156.14 194.18 153.73 193.35 C 157.81 193.86 162.29 194.22 166.32 193.20 C 169.15 192.44 170.57 190.35 172.17 188.09 C 173.18 186.71 174.14 185.30 175.03 183.83 C 168.81 180.74 162.25 177.66 156.80 173.32 C 157.37 173.46 157.94 173.61 158.51 173.75 C 158.36 171.66 158.10 169.48 158.33 167.39 C 160.74 163.28 166.45 161.63 170.89 162.99 C 174.81 164.11 178.52 165.72 182.56 166.45 C 183.60 166.69 184.64 166.92 185.67 167.16 C 185.88 160.54 183.50 154.55 183.02 148.02 C 182.42 142.66 182.42 135.46 179.01 131.02 C 173.79 125.45 166.94 124.96 159.74 125.55 C 163.58 127.34 168.24 128.79 171.49 131.51 C 175.98 135.42 178.31 140.67 179.57 146.39 C 174.38 142.85 170.95 138.27 164.73 136.22 C 160.04 134.25 155.96 134.33 151.09 135.63 C 150.54 135.15 149.99 134.68 149.44 134.20 C 151.02 132.00 153.17 129.93 152.96 127.01 C 153.00 123.35 149.80 120.38 147.67 117.72 C 151.09 113.13 155.06 109.05 159.22 105.15 C 160.84 103.74 162.23 102.34 164.51 102.31 Z" fill="#0791bf" />
<path d="M 89.23 115.47 C 94.09 116.34 98.08 121.20 101.52 124.49 C 102.86 126.07 105.65 128.82 105.29 130.95 C 103.13 136.82 98.38 141.90 95.05 147.19 C 93.04 150.04 90.95 152.83 88.97 155.70 C 87.66 157.77 86.21 160.06 85.63 162.46 C 84.73 167.09 85.06 171.95 84.19 176.58 C 83.11 181.26 80.30 185.56 76.74 188.74 C 74.00 191.11 69.99 192.85 66.34 191.95 C 60.67 190.82 56.72 187.05 53.05 182.87 C 51.20 178.18 50.68 173.10 52.19 168.24 C 54.77 159.77 59.88 153.23 65.79 146.84 C 72.83 138.26 79.51 129.35 86.27 120.56 C 87.33 118.90 88.27 117.19 89.23 115.47 Z" fill="#f9fcf9" />
<path d="M 106.46 124.75 C 112.48 127.03 114.48 131.95 118.80 136.20 C 120.85 138.38 123.46 140.21 125.22 142.63 C 126.57 145.78 126.85 149.44 127.69 152.76 C 130.89 147.93 134.48 144.09 139.02 140.49 C 138.36 146.07 134.39 149.78 133.21 155.14 C 131.84 160.93 131.90 167.09 133.09 172.91 C 131.89 172.79 130.69 172.68 129.48 172.56 C 128.84 170.34 128.17 168.13 127.44 165.94 C 124.77 170.43 125.14 174.99 124.80 179.99 C 124.70 182.97 122.91 186.16 119.81 186.78 C 114.68 187.58 109.24 186.48 104.06 187.14 C 100.16 187.29 100.30 193.83 96.00 193.16 C 92.39 193.47 92.01 190.53 90.40 188.09 C 88.93 188.10 87.47 188.12 86.00 188.15 C 85.81 192.96 85.85 197.77 85.85 202.58 C 84.45 202.79 83.05 203.08 81.65 203.28 C 81.71 204.72 81.76 206.17 81.82 207.61 C 79.23 207.02 76.10 206.62 73.88 205.10 C 71.65 203.45 69.84 201.10 68.00 199.03 C 73.22 197.23 77.20 194.98 79.91 189.97 C 81.79 186.53 83.73 183.06 85.19 179.41 C 87.16 174.44 86.08 169.32 87.16 164.22 C 87.86 161.20 89.57 158.23 90.89 155.43 C 90.25 155.52 89.61 155.61 88.97 155.70 C 90.95 152.83 93.04 150.04 95.05 147.19 L 95.43 149.25 C 98.47 145.86 100.76 142.27 104.36 139.40 C 105.85 138.01 108.07 136.64 108.88 134.73 C 108.74 131.38 107.26 128.01 106.46 124.75 Z" fill="#028fca" />
<path d="M 159.74 125.55 C 166.94 124.96 173.79 125.45 179.01 131.02 C 182.42 135.46 182.42 142.66 183.02 148.02 C 183.50 154.55 185.88 160.54 185.67 167.16 C 184.64 166.92 183.60 166.69 182.56 166.45 C 179.00 163.05 175.02 161.21 170.02 161.30 C 164.85 160.96 157.47 162.78 155.15 167.98 C 153.89 170.21 155.72 171.51 156.80 173.32 C 162.25 177.66 168.81 180.74 175.03 183.83 C 174.14 185.30 173.18 186.71 172.17 188.09 C 168.61 189.95 165.18 191.79 161.04 191.73 C 155.62 191.98 150.65 189.86 146.45 186.58 C 141.95 183.04 137.80 178.60 135.94 173.08 C 133.22 165.58 134.51 156.79 137.60 149.58 C 140.23 143.37 145.20 138.74 151.09 135.63 C 155.96 134.33 160.04 134.25 164.73 136.22 C 170.95 138.27 174.38 142.85 179.57 146.39 C 178.31 140.67 175.98 135.42 171.49 131.51 C 168.24 128.79 163.58 127.34 159.74 125.55 Z" fill="#f8fcfa" />
<path d="M 90.89 155.43 C 89.57 158.23 87.86 161.20 87.16 164.22 C 86.08 169.32 87.16 174.44 85.19 179.41 C 83.73 183.06 81.79 186.53 79.91 189.97 C 75.67 191.67 71.64 193.32 66.97 193.02 C 63.27 192.75 59.47 190.83 56.06 189.42 C 54.82 187.34 53.89 185.13 53.05 182.87 C 56.72 187.05 60.67 190.82 66.34 191.95 C 69.99 192.85 74.00 191.11 76.74 188.74 C 80.30 185.56 83.11 181.26 84.19 176.58 C 85.06 171.95 84.73 167.09 85.63 162.46 C 86.21 160.06 87.66 157.77 88.97 155.70 C 89.61 155.61 90.25 155.52 90.89 155.43 Z" fill="#4399b8" />
<path d="M 170.02 161.30 C 175.02 161.21 179.00 163.05 182.56 166.45 C 178.52 165.72 174.81 164.11 170.89 162.99 C 166.45 161.63 160.74 163.28 158.33 167.39 C 158.10 169.48 158.36 171.66 158.51 173.75 C 157.94 173.61 157.37 173.46 156.80 173.32 C 155.72 171.51 153.89 170.21 155.15 167.98 C 157.47 162.78 164.85 160.96 170.02 161.30 Z" fill="#30789d" />
<path d="M 72.17 165.73 C 74.11 165.81 76.30 166.92 77.25 168.66 C 78.16 172.10 76.36 175.66 73.43 177.49 C 71.24 178.16 68.25 178.37 66.96 176.03 C 64.81 171.78 67.27 166.36 72.17 165.73 Z" fill="#0e4a84" />
<path d="M 127.44 165.94 C 128.17 168.13 128.84 170.34 129.48 172.56 C 130.69 172.68 131.89 172.79 133.09 172.91 C 135.79 182.59 144.08 190.66 153.73 193.35 C 156.14 194.18 158.55 195.04 160.91 196.02 C 162.18 197.15 163.22 198.86 165.07 198.90 C 170.65 199.32 176.28 198.84 181.88 199.10 C 181.96 203.22 181.68 207.48 182.34 211.56 C 183.96 212.48 185.79 213.11 187.53 213.78 C 187.87 216.46 187.78 219.54 188.84 222.03 C 189.90 223.08 191.17 223.97 192.35 224.88 C 189.33 225.53 186.27 226.04 183.20 226.39 L 183.19 226.62 C 189.29 227.39 195.30 228.67 201.39 229.55 C 201.79 230.53 202.21 231.52 202.62 232.50 C 206.52 232.80 210.40 233.26 214.28 233.75 C 209.19 234.02 204.11 234.39 199.00 234.33 C 170.01 234.35 141.00 234.29 112.00 234.26 C 105.88 234.05 100.84 235.84 95.20 232.83 C 90.96 228.06 86.64 223.38 82.43 218.59 C 77.83 213.85 73.15 209.19 68.58 204.42 C 63.87 199.87 59.59 194.95 56.06 189.42 C 59.47 190.83 63.27 192.75 66.97 193.02 C 71.64 193.32 75.67 191.67 79.91 189.97 C 77.20 194.98 73.22 197.23 68.00 199.03 C 69.84 201.10 71.65 203.45 73.88 205.10 C 76.10 206.62 79.23 207.02 81.82 207.61 C 81.76 206.17 81.71 204.72 81.65 203.28 C 83.05 203.08 84.45 202.79 85.85 202.58 C 85.85 197.77 85.81 192.96 86.00 188.15 C 87.47 188.12 88.93 188.10 90.40 188.09 C 92.01 190.53 92.39 193.47 96.00 193.16 C 100.30 193.83 100.16 187.29 104.06 187.14 C 109.24 186.48 114.68 187.58 119.81 186.78 C 122.91 186.16 124.70 182.97 124.80 179.99 C 125.14 174.99 124.77 170.43 127.44 165.94 Z" fill="#018ac1" />
<path d="M 95.20 232.83 C 100.84 235.84 105.88 234.05 112.00 234.26 C 141.00 234.29 170.01 234.35 199.00 234.33 C 204.11 234.39 209.19 234.02 214.28 233.75 C 221.96 234.26 228.43 236.49 236.00 233.77 L 236.00 239.00 L 1.66 239.00 C 2.05 237.75 2.40 236.50 2.75 235.24 C 30.89 234.78 58.91 235.65 86.99 234.39 C 89.85 234.26 92.44 233.49 95.20 232.83 Z" fill="#0b6bd3" />
</svg>